<svg width="120" height="48" viewBox="0 0 120 48" fill="none" xmlns="http://www.w3.org/2000/svg">
<g id="IBM_logo 1" clip-path="url(#clip0_1_3)">
<g id="Group">
<g id="Group_2">
<path id="Rectangle-path" d="M0 44.6578H23.332V47.9882H0V44.6578Z" fill="#1F70C1"/>
<path id="Rectangle-path_1_" d="M0 38.2697H23.332V41.6118H0V38.2697Z" fill="#1F70C1"/>
<path id="Rectangle-path_2_" d="M6.65619 31.8933H16.6641V35.2356H6.65619V31.8933Z" fill="#1F70C1"/>
<path id="Rectangle-path_3_" d="M6.65619 25.5171H16.6641V28.8593H6.65619V25.5171Z" fill="#1F70C1"/>
<path id="Rectangle-path_4_" d="M6.65619 19.1407H16.6641V22.4829H6.65619V19.1407Z" fill="#1F70C1"/>
<path id="Rectangle-path_5_" d="M6.65619 12.7526H16.6641V16.0949H6.65619V12.7526Z" fill="#1F70C1"/>
<path id="Rectangle-path_6_" d="M23.332 6.37625H0V9.71849H23.332V6.37625Z" fill="#1F70C1"/>
<path id="Rectangle-path_7_" d="M23.332 0H0V3.34224H23.332V0Z" fill="#1F70C1"/>
</g>
<g id="Group_3">
<path id="Shape_16_" d="M26.66 41.6118H62.5435C63.1496 40.5807 63.6013 39.4548 63.8748 38.2696H26.66V41.6118Z" fill="#1F70C1"/>
<path id="Shape_17_" d="M59.7504 25.5171H33.3281V28.8593H62.5436C61.7828 27.5792 60.8438 26.4534 59.7504 25.5171Z" fill="#1F70C1"/>
<path id="Shape_18_" d="M33.3281 19.1407V22.4829H59.7504C60.8677 21.5466 61.8066 20.4206 62.5436 19.1407H33.3281Z" fill="#1F70C1"/>
<path id="Shape_19_" d="M62.5436 6.37625H26.66V9.71849H63.8748C63.5658 8.5333 63.1141 7.40745 62.5436 6.37625Z" fill="#1F70C1"/>
<path id="Shape_20_" d="M51.5135 0H26.66V3.34224H60.0832C57.8486 1.27996 54.8178 0 51.5135 0Z" fill="#1F70C1"/>
<path id="Rectangle-path_8_" d="M43.3241 12.7526H33.3281V16.0949H43.3241V12.7526Z" fill="#1F70C1"/>
<path id="Shape_21_" d="M53.332 16.0949H63.7915C64.0886 15.0282 64.2432 13.9023 64.2432 12.7526H53.332V16.0949Z" fill="#1F70C1"/>
<path id="Rectangle-path_9_" d="M33.3281 31.8933H43.3241V35.2356H33.3281V31.8933Z" fill="#1F70C1"/>
<path id="Shape_22_" d="M53.332 31.8933V35.2356H64.2432C64.2432 34.0859 64.0886 32.96 63.7915 31.8933H53.332Z" fill="#1F70C1"/>
<path id="Shape_23_" d="M26.66 47.9645L51.5135 48C54.8416 48 57.8486 46.7201 60.095 44.6578H26.66V47.9645Z" fill="#1F70C1"/>
</g>
<g id="Group_4">
<path id="Rectangle-path_10_" d="M66.668 44.6578H83.3319V47.9882H66.668V44.6578Z" fill="#1F70C1"/>
<path id="Rectangle-path_11_" d="M66.668 38.2697H83.3319V41.6118H66.668V38.2697Z" fill="#1F70C1"/>
<path id="Rectangle-path_12_" d="M73.3241 31.8933H83.332V35.2356H73.3241V31.8933Z" fill="#1F70C1"/>
<path id="Rectangle-path_13_" d="M73.3241 25.5171H83.332V28.8593H73.3241V25.5171Z" fill="#1F70C1"/>
<path id="Shape_24_" d="M87.9675 6.37625H66.668V9.71849H89.1204L87.9675 6.37625Z" fill="#1F70C1"/>
<path id="Shape_25_" d="M85.7567 0H66.668V3.34224H86.9096L85.7567 0Z" fill="#1F70C1"/>
<path id="Rectangle-path_14_" d="M103.324 44.6578H120V47.9882H103.324V44.6578Z" fill="#1F70C1"/>
<path id="Rectangle-path_15_" d="M103.324 38.2697H120V41.6118H103.324V38.2697Z" fill="#1F70C1"/>
<path id="Rectangle-path_16_" d="M103.324 31.8933H113.332V35.2356H103.324V31.8933Z" fill="#1F70C1"/>
<path id="Rectangle-path_17_" d="M103.324 25.5171H113.332V28.8593H103.324V25.5171Z" fill="#1F70C1"/>
<path id="Shape_26_" d="M103.324 22.4829H113.332V19.1407H103.324H94.2671L93.3281 21.843L92.3891 19.1407H83.332H73.3241V22.4829H83.332V19.4133L84.3899 22.4829H102.266L103.324 19.4133V22.4829Z" fill="#1F70C1"/>
<path id="Shape_27_" d="M113.332 12.7526H96.4778L95.3249 16.0949H113.332V12.7526Z" fill="#1F70C1"/>
<path id="Shape_28_" d="M100.911 0L99.7582 3.34224H120V0H100.911Z" fill="#1F70C1"/>
<path id="Shape_29_" d="M93.3281 47.9645L94.4809 44.6578H92.1751L93.3281 47.9645Z" fill="#1F70C1"/>
<path id="Shape_30_" d="M91.1173 41.6118H95.5389L96.7275 38.2697H89.9406L91.1173 41.6118Z" fill="#1F70C1"/>
<path id="Shape_31_" d="M88.8708 35.2356H97.7853L98.962 31.8933H87.6941L88.8708 35.2356Z" fill="#1F70C1"/>
<path id="Shape_32_" d="M86.6363 28.8593H100.032L101.173 25.5171H85.4833L86.6363 28.8593Z" fill="#1F70C1"/>
<path id="Shape_33_" d="M73.3241 16.0949H91.3312L90.1783 12.7526H73.3241V16.0949Z" fill="#1F70C1"/>
<path id="Shape_34_" d="M97.5475 9.71849H120V6.37625H98.6886L97.5475 9.71849Z" fill="#1F70C1"/>
</g>
</g>
</g>
<defs>
<clipPath id="clip0_1_3">
<rect width="120" height="48" fill="white"/>
</clipPath>
</defs>
</svg>
